<?xml version="1.0" encoding="UTF-8"?>
<!DOCTYPE svg PUBLIC "-//W3C//DTD SVG 1.1//EN" "http://www.w3.org/Graphics/SVG/1.1/DTD/svg11.dtd">
<svg xmlns="http://www.w3.org/2000/svg" version="1.1" width="48px" height="48px" style="shape-rendering:geometricPrecision; text-rendering:geometricPrecision; image-rendering:optimizeQuality; fill-rule:evenodd; clip-rule:evenodd" xmlns:xlink="http://www.w3.org/1999/xlink">
<g><path style="opacity:0.966" fill="#17183e" d="M 8.5,28.5 C 8.83333,30.5 9.16667,32.5 9.5,34.5C 8.66097,35.6412 7.99431,36.9745 7.5,38.5C 8.42463,39.5624 9.42463,39.5624 10.5,38.5C 12.0463,38.7239 13.713,39.0573 15.5,39.5C 13.289,40.9789 10.9556,42.3122 8.5,43.5C 6.83333,43.5 5.16667,43.5 3.5,43.5C 3.19607,39.7846 3.86274,36.2846 5.5,33C 0.23182,19.8792 3.89849,10.2125 16.5,4C 19.8168,3.50166 23.1501,3.33499 26.5,3.5C 26.67,4.82207 26.3366,5.98873 25.5,7C 11.5116,7.87019 5.84497,15.0369 8.5,28.5 Z"/></g>
<g><path style="opacity:0.978" fill="#23203d" d="M 42.5,16.5 C 45.072,28.186 41.072,36.686 30.5,42C 27.6074,43.1488 24.6074,43.6488 21.5,43.5C 21.5,42.5 21.5,41.5 21.5,40.5C 35.3761,39.782 41.5427,32.4487 40,18.5C 38.4509,13.0283 34.9509,9.69493 29.5,8.5C 28.7659,7.29208 28.4326,5.95875 28.5,4.5C 35.9261,5.25816 40.5928,9.25816 42.5,16.5 Z"/></g>
<g><path style="opacity:0.952" fill="#f9e803" d="M 29.5,8.5 C 34.9509,9.69493 38.4509,13.0283 40,18.5C 41.5427,32.4487 35.3761,39.782 21.5,40.5C 21.5,41.5 21.5,42.5 21.5,43.5C 24.6074,43.6488 27.6074,43.1488 30.5,42C 41.072,36.686 45.072,28.186 42.5,16.5C 45.3863,19.4827 46.7197,23.1493 46.5,27.5C 43.519,44.1668 33.8524,49.8334 17.5,44.5C 14.5804,45.5856 11.5804,46.2523 8.5,46.5C 8.5,45.5 8.5,44.5 8.5,43.5C 10.9556,42.3122 13.289,40.9789 15.5,39.5C 13.713,39.0573 12.0463,38.7239 10.5,38.5C 10.5674,37.0413 10.2341,35.7079 9.5,34.5C 9.16667,32.5 8.83333,30.5 8.5,28.5C 8.97993,15.0206 15.9799,8.35393 29.5,8.5 Z"/></g>
<g><path style="opacity:1" fill="#18193e" d="M 14.5,18.5 C 21.0139,18.0446 27.3473,18.5446 33.5,20C 27.3391,21.6198 21.0057,21.9532 14.5,21C 13.4019,20.2303 13.4019,19.397 14.5,18.5 Z"/></g>
<g><path style="opacity:1" fill="#18193e" d="M 14.5,25.5 C 19.6912,25.0585 24.6912,25.5585 29.5,27C 24.681,28.6058 19.681,28.9391 14.5,28C 13.4019,27.2303 13.4019,26.397 14.5,25.5 Z"/></g>
</svg>
